<?xml version="1.0" standalone="no"?>
<!DOCTYPE svg PUBLIC "-//W3C//DTD SVG 20010904//EN"
 "http://www.w3.org/TR/2001/REC-SVG-20010904/DTD/svg10.dtd">
<svg version="1.0" xmlns="http://www.w3.org/2000/svg"
 width="416.000000pt" height="416.000000pt" viewBox="0 0 416.000000 416.000000"
 preserveAspectRatio="xMidYMid meet">
<metadata>
Created by potrace 1.14, written by Peter Selinger 2001-2017
</metadata>
<g transform="translate(0.000000,416.000000) scale(0.100000,-0.100000)"
fill="#000000" stroke="none">
<path d="M0 2080 l0 -2080 2080 0 2080 0 0 2080 0 2080 -2080 0 -2080 0 0
-2080z m2040 1726 c0 -2 -7 -7 -16 -10 -8 -3 -12 -2 -9 4 6 10 25 14 25 6z
m-95 -256 c-3 -5 -10 -10 -16 -10 -5 0 -9 5 -9 10 0 6 7 10 16 10 8 0 12 -4 9
-10z m-140 -30 c3 -5 -1 -10 -10 -10 -9 0 -13 5 -10 10 3 6 8 10 10 10 2 0 7
-4 10 -10z m-104 -92 c30 -34 42 -71 15 -49 -7 6 -21 9 -30 5 -9 -3 -16 -1
-16 5 0 6 6 11 13 11 8 0 7 4 -3 10 -8 5 -11 10 -7 10 4 0 3 9 -3 20 -16 30
-3 24 31 -12z m325 -13 c-9 -9 -21 -13 -27 -9 -8 4 -3 11 12 20 30 15 37 10
15 -11z m-201 -35 c-3 -5 -11 -10 -16 -10 -6 0 -7 5 -4 10 3 6 11 10 16 10 6
0 7 -4 4 -10z m568 -10 c3 -11 1 -18 -4 -14 -5 3 -9 12 -9 20 0 20 7 17 13 -6z
m-31 -12 c-7 -7 -12 -8 -12 -2 0 14 12 26 19 19 2 -3 -1 -11 -7 -17z m-617
-38 c-3 -5 -11 -10 -16 -10 -6 0 -7 5 -4 10 3 6 11 10 16 10 6 0 7 -4 4 -10z
m-368 -16 c-3 -3 -12 -4 -19 -1 -8 3 -5 6 6 6 11 1 17 -2 13 -5z m427 -13 c17
-7 26 -7 30 2 2 7 5 2 5 -10 1 -14 -5 -23 -13 -23 -9 0 -12 -7 -9 -20 5 -19 6
-20 20 -3 8 11 11 12 7 3 -4 -8 5 -4 19 9 24 22 27 22 42 7 9 -9 20 -16 24
-16 4 0 7 -10 5 -22 -1 -13 -3 -27 -3 -33 -1 -5 -12 3 -25 20 l-24 30 -11 -43
c-7 -23 -9 -47 -6 -52 4 -6 1 -9 -6 -8 -6 2 -14 -3 -16 -10 -4 -9 12 -11 66
-8 39 2 71 0 71 -5 0 -5 7 -9 16 -9 11 0 14 5 10 16 -5 13 -4 14 7 6 8 -7 17
-9 21 -4 4 4 12 -1 17 -10 7 -12 21 -16 50 -15 35 1 38 3 23 14 -10 7 -21 13
-26 13 -4 0 -8 7 -8 15 0 21 6 19 46 -12 29 -22 37 -24 44 -13 5 8 5 19 -1 26
-5 6 -7 19 -3 27 5 15 46 47 60 47 3 0 3 -24 0 -53 l-7 -53 133 4 c73 2 138 8
144 13 9 7 3 18 -17 39 -32 32 -37 49 -14 51 29 3 33 4 42 13 5 5 2 6 -6 1 -9
-5 -12 -4 -7 3 10 17 26 15 26 -3 0 -8 7 -15 15 -15 8 0 15 -3 15 -8 0 -4 10
-12 23 -17 12 -6 26 -24 32 -42 7 -24 15 -33 31 -33 12 0 29 -3 38 -6 13 -5
15 -1 9 26 -6 31 -5 33 21 28 29 -6 35 0 47 46 6 22 7 12 4 -31 -3 -35 -4 -63
-2 -63 1 0 41 5 87 11 88 11 130 28 130 55 0 9 7 14 16 12 10 -2 23 -23 32
-53 12 -43 12 -62 1 -135 -7 -47 -14 -103 -15 -125 0 -22 -4 -86 -9 -143 -7
-94 -6 -104 11 -118 18 -14 18 -14 -1 -12 -17 3 -21 -4 -23 -34 -2 -29 -8 -38
-21 -38 -20 0 -31 26 -31 73 0 15 -7 44 -15 65 -9 20 -12 38 -7 40 11 3 -44
169 -63 188 -8 9 -15 12 -16 7 0 -4 -4 2 -10 15 -5 13 -13 21 -18 17 -6 -3
-13 1 -18 9 -21 36 -213 65 -428 65 -62 0 -74 -3 -103 -28 -27 -23 -36 -41
-47 -95 -15 -69 -10 -101 14 -101 22 0 24 -23 3 -29 -13 -5 -18 -15 -17 -34 1
-15 3 -44 3 -65 2 -26 6 -36 14 -31 8 5 9 0 6 -14 -4 -12 -2 -20 3 -16 5 3 9
-4 9 -14 0 -14 7 -19 25 -19 18 0 25 5 25 18 0 19 37 46 48 35 3 -3 -1 -6 -9
-6 -9 0 -10 -3 -3 -8 6 -4 25 -28 42 -54 33 -48 23 -59 -18 -20 l-24 22 -11
-27 c-7 -16 -8 -29 -3 -31 4 -2 8 -13 8 -23 0 -19 -2 -19 -22 -5 -34 24 -50
20 -46 -11 2 -22 9 -29 31 -31 30 -4 38 -22 8 -22 -14 0 -21 -10 -25 -35 -4
-19 -11 -35 -15 -35 -4 0 -15 24 -24 53 l-16 52 7 -65 c8 -82 4 -204 -9 -236
-5 -14 -6 -36 -3 -49 5 -21 9 -22 25 -12 10 6 19 17 19 24 0 7 9 13 20 13 13
0 18 5 14 15 -13 32 27 12 45 -22 10 -20 8 -27 -20 -55 -17 -18 -38 -44 -47
-57 -14 -21 -14 -24 1 -33 9 -5 17 -18 17 -30 0 -14 5 -18 16 -14 9 3 22 6 30
6 8 0 14 7 14 15 0 33 28 13 35 -25 4 -21 -5 -26 -21 -10 -6 6 -15 5 -24 -1
-13 -9 -12 -10 2 -5 20 6 34 -10 16 -17 -7 -3 -3 -4 10 -4 12 1 23 5 23 9 1 4
2 12 3 17 2 19 16 23 16 5 1 -19 1 -19 15 0 16 22 18 19 15 -37 -1 -21 4 -45
11 -53 10 -12 9 -13 -5 -8 -9 3 -16 2 -16 -4 0 -5 6 -12 13 -15 15 -6 23 -97
8 -97 -5 0 -7 -9 -4 -21 4 -16 11 -19 29 -15 28 7 30 -1 6 -32 -17 -22 -52
-23 -52 -1 0 5 -3 9 -7 9 -5 0 -9 -14 -10 -30 -1 -17 1 -28 6 -26 4 3 7 -12 5
-32 -3 -59 -6 -60 -14 -5 -6 38 -16 60 -38 82 -16 17 -29 25 -29 18 1 -34 -6
-80 -10 -64 -2 9 -9 17 -14 17 -14 0 -11 -17 7 -34 8 -9 12 -16 8 -16 -3 0 -1
-7 6 -15 7 -9 14 -25 16 -38 11 -79 28 -150 40 -162 10 -9 11 -16 3 -20 -16
-10 20 -45 47 -45 56 0 64 -65 19 -152 -25 -50 -24 -52 26 -48 14 0 35 -7 47
-17 19 -16 20 -23 13 -56 -11 -44 -19 -56 -29 -40 -7 11 -93 38 -102 32 -3 -2
-4 -8 -2 -13 3 -10 -17 -26 -35 -26 -6 0 -14 8 -17 18 -5 16 -21 16 -218 10
-137 -5 -227 -3 -252 3 -22 6 -69 8 -110 4 -58 -6 -80 -3 -114 11 -43 19 -56
44 -23 44 21 0 57 42 115 134 43 67 41 79 -23 141 -26 26 -30 33 -15 32 13 -2
18 4 16 16 -2 13 2 17 15 15 12 -2 18 3 18 17 0 16 7 20 35 20 47 0 63 11 54
38 -6 19 -5 20 9 9 20 -17 30 0 22 37 -6 30 17 67 36 56 12 -8 11 -2 -4 29 -8
14 -17 23 -20 20 -3 -3 -3 3 0 15 3 11 9 19 13 16 12 -8 20 34 20 113 0 70 -1
72 -25 72 -16 0 -23 4 -19 13 3 8 -2 20 -11 27 -13 11 -13 15 -3 22 9 6 5 8
-12 7 -51 -4 -62 0 -58 24 2 17 9 22 32 21 28 -1 29 -1 11 12 -11 8 -25 12
-31 10 -11 -4 -24 14 -24 32 0 4 14 13 31 21 19 8 37 27 46 48 13 33 13 37
-10 72 -40 59 -61 125 -48 150 14 25 27 27 39 5 7 -13 11 -11 21 13 13 31 42
235 35 242 -2 2 -4 -1 -4 -7 0 -6 -6 -9 -14 -6 -8 3 -13 15 -11 26 4 20 3 20
-15 3 -21 -19 -35 -15 -43 15 -3 13 -1 18 6 13 7 -4 6 1 -2 10 -7 9 -11 23 -8
31 6 16 -19 30 -28 16 -10 -16 -31 0 -32 23 -1 55 -4 68 -12 62 -10 -5 -37 33
-33 47 1 4 3 20 4 37 1 16 6 27 11 24 4 -3 6 -11 3 -18 -5 -14 11 -15 31 -2
13 8 58 -7 68 -23 3 -5 11 -8 16 -5 5 4 9 0 9 -8 0 -19 51 -29 69 -14 11 9 13
9 8 0 -4 -6 -2 -15 4 -19 7 -4 9 -3 5 4 -3 6 -2 13 3 16 9 6 8 25 -5 141 -5
48 -27 81 -46 69 -5 -3 -17 5 -28 18 -18 22 -19 22 -19 3 0 -11 3 -37 8 -58 8
-34 7 -38 -7 -33 -16 6 -16 5 0 -7 10 -8 13 -18 8 -26 -16 -27 -25 -1 -24 67
2 69 1 71 -27 81 -15 5 -50 8 -77 5 -27 -2 -92 -6 -145 -7 -61 -1 -101 -7
-109 -14 -6 -7 -18 -13 -24 -13 -20 0 -102 -59 -122 -86 -9 -13 -25 -34 -34
-45 -19 -23 -15 -44 5 -32 8 4 7 1 -1 -9 -16 -20 2 -35 21 -19 8 6 18 6 27 1
12 -8 12 -10 -4 -10 -17 0 -16 -1 3 -17 l22 -18 -30 -2 c-24 -2 -34 4 -48 27
-19 34 -28 37 -37 15 -4 -10 2 -19 17 -25 l22 -9 -22 0 c-25 -1 -46 -34 -58
-89 -5 -26 -3 -36 11 -47 11 -7 22 -11 26 -9 4 3 5 -2 2 -11 -5 -12 -9 -13
-20 -4 -17 14 -48 -7 -40 -28 3 -7 -7 -19 -23 -28 -27 -13 -29 -13 -34 6 -4
13 -10 18 -18 14 -8 -6 -11 -1 -7 17 6 33 -17 55 -39 36 -14 -11 -16 -11 -9 1
5 8 3 17 -5 23 -10 7 -6 8 14 5 22 -3 25 -2 16 9 -6 8 -17 14 -24 14 -7 0 -18
6 -24 14 -9 11 -8 15 4 20 9 3 14 2 11 -2 -2 -4 8 -15 24 -24 38 -21 54 -5 45
45 -6 28 -10 34 -27 29 -14 -3 -16 -8 -9 -15 18 -18 13 -25 -15 -19 -24 4 -26
8 -20 40 7 45 40 82 58 64 13 -13 29 -16 26 -4 -2 12 13 83 34 154 17 58 18
74 8 123 -13 63 -7 105 15 105 7 0 17 -9 20 -20 7 -22 35 -28 35 -7 0 12 6 14
65 18 14 1 25 5 25 10 0 5 4 9 10 9 5 0 7 -8 4 -17 -5 -15 -2 -14 13 3 10 12
29 26 41 33 13 7 21 18 20 26 -2 7 0 14 5 14 4 1 7 -1 7 -4 -1 -20 35 -66 61
-79 29 -14 34 -14 60 1 21 12 25 20 16 26 -8 6 -6 7 7 3 22 -7 126 15 126 27
0 4 -10 12 -22 17 -16 6 -18 9 -6 9 9 1 30 -7 47 -16 27 -16 32 -16 45 -3 11
10 12 20 6 30 -8 13 -13 13 -30 2 -20 -12 -20 -11 -10 8 12 22 26 25 64 11z
m290 -32 c-6 -11 -24 -2 -24 11 0 5 7 7 15 4 8 -4 12 -10 9 -15z m694 1 c-7
-10 -14 -17 -17 -15 -4 4 18 35 25 35 2 0 -1 -9 -8 -20z m-637 -15 c1 -19 -20
-16 -31 4 -9 18 -8 20 11 13 11 -5 20 -12 20 -17z m-91 -3 c0 -5 -7 -9 -15 -9
-8 0 -15 4 -15 9 0 4 7 8 15 8 8 0 15 -4 15 -8z m-510 -12 c8 -5 12 -12 9 -15
-8 -8 -39 5 -39 16 0 11 11 11 30 -1z m760 1 c0 -5 -8 -11 -17 -15 -10 -3 -24
-9 -30 -12 -8 -3 -13 1 -13 9 0 14 16 23 48 26 6 0 12 -3 12 -8z m27 -27 c-3
-3 -12 -4 -19 -1 -8 3 -5 6 6 6 11 1 17 -2 13 -5z m133 -49 c0 -15 -18 -30
-27 -22 -2 3 -2 15 2 26 7 23 25 19 25 -4z m-700 -216 c0 -5 -4 -9 -10 -9 -5
0 -10 7 -10 16 0 8 5 12 10 9 6 -3 10 -10 10 -16z m-223 -39 c34 -13 51 -48
27 -57 -20 -7 -18 -60 4 -72 15 -9 15 -12 2 -21 -18 -12 -1 -13 18 -2 13 9 6
42 -9 42 -17 0 -9 39 10 50 48 25 69 -17 48 -95 -14 -54 -38 -67 -81 -47 -12
6 -31 13 -44 15 -18 4 -22 2 -18 -10 4 -9 1 -13 -6 -11 -7 3 -21 -4 -32 -13
-10 -10 -23 -16 -27 -13 -5 3 5 17 22 32 l30 27 -28 0 c-15 1 -31 -4 -35 -10
-5 -6 -12 -5 -20 3 -7 8 -8 12 -3 11 11 -4 94 52 95 64 0 4 -7 7 -15 7 -8 0
-15 -4 -15 -8 0 -5 -7 -9 -16 -9 -13 0 -12 3 4 16 17 13 18 18 8 28 -15 13
-31 5 -31 -16 0 -8 -13 -15 -34 -16 -19 -2 -29 0 -23 4 22 13 18 55 -6 66 -27
12 -23 31 7 28 15 -2 24 5 31 21 12 33 29 37 70 16 19 -10 49 -23 67 -30z
m843 40 c0 -5 -4 -10 -10 -10 -5 0 -10 5 -10 10 0 6 5 10 10 10 6 0 10 -4 10
-10z m-460 -10 c0 -5 -2 -10 -4 -10 -3 0 -8 5 -11 10 -3 6 -1 10 4 10 6 0 11
-4 11 -10z m590 -30 c0 -5 -5 -10 -11 -10 -5 0 -7 5 -4 10 3 6 8 10 11 10 2 0
4 -4 4 -10z m-725 -20 c-3 -5 -11 -10 -16 -10 -6 0 -7 5 -4 10 3 6 11 10 16
10 6 0 7 -4 4 -10z m610 0 c3 -5 1 -10 -4 -10 -6 0 -11 5 -11 10 0 6 2 10 4
10 3 0 8 -4 11 -10z m-675 -31 c0 -6 -4 -7 -10 -4 -5 3 -10 11 -10 16 0 6 5 7
10 4 6 -3 10 -11 10 -16z m70 -13 c0 -3 -4 -8 -10 -11 -5 -3 -10 -1 -10 4 0 6
5 11 10 11 6 0 10 -2 10 -4z m137 -18 c-3 -8 -6 -5 -6 6 -1 11 2 17 5 13 3 -3
4 -12 1 -19z m357 -16 c-4 -12 -10 -22 -15 -22 -12 0 -11 17 2 25 6 4 8 14 4
24 -4 11 -3 13 4 6 6 -6 8 -20 5 -33z m-869 -32 c-3 -5 -11 -10 -16 -10 -6 0
-7 5 -4 10 3 6 11 10 16 10 6 0 7 -4 4 -10z m881 -17 c-10 -10 -19 5 -10 18 6
11 8 11 12 0 2 -7 1 -15 -2 -18z m-1366 9 c0 -4 -9 -8 -20 -8 -11 0 -20 4 -20
8 0 4 9 8 20 8 11 0 20 -4 20 -8z m85 -42 c3 -6 -1 -7 -9 -4 -18 7 -21 14 -7
14 6 0 13 -4 16 -10z m80 -41 c11 -17 -1 -21 -15 -4 -8 9 -8 15 -2 15 6 0 14
-5 17 -11z m480 -19 c3 -5 1 -10 -4 -10 -6 0 -11 5 -11 10 0 6 2 10 4 10 3 0
8 -4 11 -10z m915 -14 c0 -3 -4 -8 -10 -11 -5 -3 -10 -1 -10 4 0 6 5 11 10 11
6 0 10 -2 10 -4z m-1400 -50 c0 -3 -4 -8 -10 -11 -5 -3 -10 -1 -10 4 0 6 5 11
10 11 6 0 10 -2 10 -4z m1992 -18 c-11 -11 -32 -3 -32 12 0 4 9 6 21 3 13 -4
17 -9 11 -15z m-1322 -9 c0 -5 -4 -9 -10 -9 -5 0 -10 7 -10 16 0 8 5 12 10 9
6 -3 10 -10 10 -16z m-723 -14 c0 -8 -4 -12 -9 -9 -4 3 -8 -4 -8 -15 0 -23
-15 -28 -23 -8 -6 17 3 32 23 40 8 3 15 6 16 6 0 1 1 -6 1 -14z m40 -10 c-4
-8 -11 -15 -17 -15 -6 0 -6 7 2 20 14 22 24 19 15 -5z m-37 -62 c-11 -8 -27
-9 -46 -3 l-29 8 26 1 c15 1 30 8 33 17 5 12 8 13 20 2 11 -11 11 -15 -4 -25z
m124 1 c3 -8 2 -12 -4 -9 -6 3 -10 10 -10 16 0 14 7 11 14 -7z m-239 -42 c-3
-3 -11 0 -18 7 -9 10 -8 11 6 5 10 -3 15 -9 12 -12z m925 -22 c0 -5 -7 -10
-16 -10 -8 0 -12 5 -9 10 3 6 10 10 16 10 5 0 9 -4 9 -10z m-23 -34 c3 -3 -10
-6 -30 -6 -20 0 -37 4 -37 9 0 10 57 8 67 -3z m-800 -48 c-3 -7 -5 -2 -5 12 0
14 2 19 5 13 2 -7 2 -19 0 -25z m1383 -28 c0 -5 -7 -7 -15 -4 -8 4 -15 8 -15
10 0 2 7 4 15 4 8 0 15 -4 15 -10z m-680 -120 c12 -8 11 -10 -7 -10 -13 0 -23
5 -23 10 0 13 11 13 30 0z m780 -30 c0 -5 -7 -10 -16 -10 -8 0 -12 5 -9 10 3
6 10 10 16 10 5 0 9 -4 9 -10z m-145 -59 c5 -16 4 -21 -4 -17 -6 4 -11 14 -11
22 0 8 -4 12 -10 9 -6 -4 -10 6 -10 22 0 26 1 26 14 8 7 -11 17 -31 21 -44z
m-585 -1 c0 -5 -2 -10 -4 -10 -3 0 -8 5 -11 10 -3 6 -1 10 4 10 6 0 11 -4 11
-10z m564 -97 c-7 -2 -10 -12 -7 -22 6 -23 -15 -37 -30 -22 -9 9 -8 11 6 6 19
-8 24 10 5 21 -6 4 -17 -1 -24 -11 -13 -17 -14 -17 -20 -1 -9 22 7 33 49 33
18 1 27 -1 21 -4z m-442 -281 c-7 -2 -12 -11 -12 -19 0 -9 -3 -14 -6 -10 -10
10 7 48 19 40 8 -5 8 -8 -1 -11z m-315 -58 c-4 -4 -14 1 -22 12 -22 29 -18 41
7 17 12 -13 19 -26 15 -29z m923 -92 c0 -18 -5 -29 -14 -29 -8 0 -12 6 -10 14
11 38 14 43 19 43 3 0 5 -13 5 -28z m-790 -22 c11 -7 5 -8 -20 -4 -43 8 -51
14 -19 14 13 0 31 -5 39 -10z m-35 -47 c-8 -47 -18 -58 -41 -45 -15 9 -15 12
9 33 15 12 27 29 27 36 0 7 3 13 6 13 3 0 3 -17 -1 -37z m129 20 c35 -18 51
-41 20 -29 -14 5 -15 4 -5 -8 12 -14 8 -36 -7 -36 -9 0 -33 51 -27 59 2 4 -5
8 -16 8 -11 1 -17 -2 -15 -6 3 -4 -2 -25 -10 -47 -8 -21 -13 -28 -11 -14 3 14
8 34 13 45 7 18 6 19 -11 5 -18 -14 -18 -14 0 12 24 33 25 33 69 11z m-196
-38 c-3 -3 -9 2 -12 12 -6 14 -5 15 5 6 7 -7 10 -15 7 -18z m92 -9 c0 -8 -11
-27 -25 -42 -31 -33 -32 -25 -2 21 25 39 27 41 27 21z m704 -22 c4 -10 1 -14
-6 -12 -15 5 -23 28 -10 28 5 0 13 -7 16 -16z m73 -366 c-3 -8 -6 -5 -6 6 -1
11 2 17 5 13 3 -3 4 -12 1 -19z m-527 -148 c8 -5 11 -10 5 -10 -5 0 -17 5 -25
10 -8 5 -10 10 -5 10 6 0 17 -5 25 -10z"/>
<path d="M1283 3155 c-8 -22 6 -33 17 -15 13 20 12 30 0 30 -6 0 -13 -7 -17
-15z"/>
<path d="M1310 3137 c0 -7 9 -13 21 -14 17 -2 18 1 9 13 -15 17 -30 18 -30 1z"/>
<path d="M1775 3130 c3 -5 14 -10 23 -10 15 0 15 2 2 10 -20 13 -33 13 -25 0z"/>
<path d="M2866 3065 c-6 -16 11 -20 32 -6 11 7 10 10 -3 15 -22 8 -22 8 -29
-9z"/>
<path d="M1236 3022 c-9 -27 -14 -57 -10 -66 4 -11 1 -21 -7 -26 -22 -14 -4
-21 25 -11 17 7 26 7 26 1 0 -6 -6 -10 -14 -10 -7 0 -19 -6 -25 -14 -9 -11 -8
-15 4 -20 17 -6 59 29 50 43 -2 5 2 14 10 21 8 7 15 24 15 39 1 21 2 23 10 9
8 -13 14 -14 35 -5 30 14 29 34 -5 56 -14 9 -21 11 -16 4 11 -20 -13 -15 -41
7 -14 11 -29 20 -34 20 -4 0 -15 -22 -23 -48z m124 -11 c0 -12 -20 -25 -27
-18 -7 7 6 27 18 27 5 0 9 -4 9 -9z"/>
<path d="M2598 3063 c7 -3 16 -2 19 1 4 3 -2 6 -13 5 -11 0 -14 -3 -6 -6z"/>
<path d="M2687 3053 c-17 -16 -3 -23 48 -23 40 0 53 -3 49 -13 -2 -7 9 -23 25
-35 l30 -22 15 22 c15 20 14 23 -12 40 -46 31 -138 49 -155 31z"/>
<path d="M2940 3045 c-7 -8 -19 -15 -26 -15 -8 0 -14 -7 -14 -15 0 -8 -4 -15
-10 -15 -5 0 -10 -6 -10 -14 0 -8 -6 -16 -12 -19 -9 -3 -6 -12 10 -28 16 -16
23 -19 22 -9 -1 8 -2 24 -1 35 1 15 4 16 13 7 21 -21 28 -13 29 31 0 35 2 38
9 20 12 -30 17 -29 22 7 5 33 -11 40 -32 15z"/>
<path d="M2983 3021 c3 -14 1 -32 -6 -40 -10 -11 -9 -13 3 -9 19 6 25 47 9 62
-9 8 -10 5 -6 -13z"/>
<path d="M1985 3010 c-16 -5 -13 -8 15 -13 18 -4 35 -5 38 -2 3 3 -2 5 -10 5
-9 0 -18 4 -20 9 -1 4 -12 5 -23 1z"/>
<path d="M2135 3011 c-8 -7 -6 -41 3 -41 11 0 9 -54 -3 -62 -18 -13 -23 -9
-17 15 5 20 4 21 -13 7 -10 -8 -16 -10 -12 -4 9 15 -17 26 -40 17 -13 -5 -15
-2 -11 15 7 25 -8 28 -36 7 -15 -12 -17 -21 -11 -52 4 -21 8 -50 10 -65 1 -16
3 -32 4 -37 0 -5 10 -11 21 -14 13 -3 18 -1 13 6 -4 6 0 8 10 4 12 -4 14 -2
10 11 -3 9 -2 14 2 9 5 -4 17 0 27 10 14 13 18 13 18 2 0 -11 2 -12 9 -1 7 11
9 11 14 -2 11 -28 39 -19 36 12 -1 15 3 39 9 54 6 15 9 33 7 40 -6 17 5 32 33
47 12 6 22 16 22 20 0 9 -97 11 -105 2z m-55 -75 c0 -2 -8 -10 -17 -17 -16
-13 -17 -12 -4 4 13 16 21 21 21 13z m-50 -26 c0 -5 -4 -10 -9 -10 -6 0 -13 5
-16 10 -3 6 1 10 9 10 9 0 16 -4 16 -10z m56 -46 c-3 -9 -6 -21 -6 -27 0 -8
-3 -8 -11 0 -13 13 -5 43 12 43 6 0 8 -7 5 -16z m-36 -9 c0 -2 -6 -5 -13 -8
-8 -3 -14 1 -14 8 0 7 6 11 14 8 7 -3 13 -6 13 -8z"/>
<path d="M2927 2925 c-11 -28 -7 -69 9 -90 13 -17 16 -18 24 -5 15 24 11 63
-9 89 -16 21 -19 21 -24 6z"/>
<path d="M1202 2854 c-14 -15 -16 -60 -4 -68 5 -3 19 6 30 19 12 14 19 25 14
25 -4 0 -1 4 6 8 9 6 6 11 -10 19 -17 8 -26 7 -36 -3z"/>
<path d="M1090 2769 c0 -5 5 -7 10 -4 6 3 10 8 10 11 0 2 -4 4 -10 4 -5 0 -10
-5 -10 -11z"/>
<path d="M1980 2731 c0 -6 4 -13 10 -16 6 -3 7 1 4 9 -7 18 -14 21 -14 7z"/>
<path d="M1898 2708 c3 -11 1 -19 -4 -16 -5 4 -9 -9 -10 -28 0 -23 3 -31 10
-24 6 6 14 6 22 -1 9 -7 15 -1 24 26 13 40 2 65 -30 65 -14 0 -17 -5 -12 -22z
m32 8 c0 -3 -4 -8 -10 -11 -5 -3 -10 -1 -10 4 0 6 5 11 10 11 6 0 10 -2 10 -4z"/>
<path d="M1840 2550 c0 -5 5 -10 11 -10 5 0 7 5 4 10 -3 6 -8 10 -11 10 -2 0
-4 -4 -4 -10z"/>
<path d="M2260 2525 c0 -16 16 -20 24 -6 3 5 -1 11 -9 15 -9 3 -15 0 -15 -9z"/>
<path d="M2146 2339 c-2 -8 -7 -35 -11 -61 -3 -27 -10 -48 -15 -48 -4 0 -8 6
-7 13 1 37 -4 47 -25 47 -51 -1 -72 -30 -68 -95 3 -63 5 -75 14 -75 4 0 6 -9
3 -20 -3 -11 -1 -18 4 -14 5 3 9 -5 9 -18 0 -19 2 -20 10 -8 8 11 9 6 7 -21
-2 -20 -7 -41 -11 -47 -3 -6 -2 -13 4 -17 5 -3 10 3 10 14 0 13 5 19 14 15 9
-3 13 1 13 12 -1 11 7 20 23 24 l25 6 -22 8 c-13 4 -23 16 -23 26 0 13 5 17
15 14 10 -4 15 0 15 10 0 9 -7 19 -15 22 -8 4 -15 10 -15 14 0 10 20 8 38 -3
17 -12 15 18 -3 37 -20 19 -19 23 6 29 11 3 23 15 26 26 3 12 9 21 14 21 11 0
1 43 -17 79 -9 18 -14 21 -18 10z m-90 -204 c0 -15 -4 -21 -9 -16 -5 5 -7 17
-4 25 9 23 13 20 13 -9z"/>
<path d="M2110 2306 c0 -8 5 -18 10 -21 6 -3 10 3 10 14 0 12 -4 21 -10 21 -5
0 -10 -6 -10 -14z"/>
<path d="M2150 2191 c0 -6 5 -13 10 -16 6 -3 10 1 10 9 0 9 -4 16 -10 16 -5 0
-10 -4 -10 -9z"/>
<path d="M2207 2043 c-4 -3 -7 -19 -7 -34 0 -23 3 -27 17 -22 11 4 12 8 5 11
-7 2 -10 13 -6 28 6 24 3 30 -9 17z"/>
<path d="M1853 2002 c-9 -6 -6 -11 7 -20 21 -13 26 -6 12 15 -4 7 -13 9 -19 5z"/>
<path d="M2298 1894 c-15 -14 -8 -34 12 -34 11 0 20 5 20 11 0 5 -4 8 -9 4 -5
-3 -11 2 -13 11 -2 9 -6 12 -10 8z"/>
<path d="M1910 1856 c0 -2 7 -9 15 -16 9 -7 15 -8 15 -2 0 5 -7 12 -15 16 -8
3 -15 4 -15 2z"/>
<path d="M2330 1840 c0 -5 5 -10 11 -10 5 0 7 5 4 10 -3 6 -8 10 -11 10 -2 0
-4 -4 -4 -10z"/>
<path d="M2126 1807 c3 -10 9 -15 12 -12 3 3 0 11 -7 18 -10 9 -11 8 -5 -6z"/>
<path d="M2321 1810 c-9 -5 -11 -15 -6 -26 6 -17 8 -17 16 5 11 28 9 33 -10
21z"/>
<path d="M2421 1744 c0 -11 3 -14 6 -6 3 7 2 16 -1 19 -3 4 -6 -2 -5 -13z"/>
<path d="M2064 1735 c6 -17 -10 -30 -19 -15 -9 15 -25 12 -25 -5 0 -8 -5 -15
-11 -15 -6 0 -8 9 -4 23 5 17 4 19 -4 7 -6 -8 -11 -22 -11 -31 0 -22 66 -31
82 -12 6 7 16 13 23 13 20 0 6 37 -17 43 -14 4 -18 2 -14 -8z"/>
<path d="M2258 1733 c7 -3 16 -2 19 1 4 3 -2 6 -13 5 -11 0 -14 -3 -6 -6z"/>
<path d="M2165 1680 c-3 -5 -3 -10 2 -10 4 0 3 -4 -4 -8 -9 -6 -7 -11 6 -19
15 -10 17 -7 13 18 -5 31 -7 34 -17 19z"/>
<path d="M2018 1658 c5 -5 16 -8 23 -6 8 3 3 7 -10 11 -17 4 -21 3 -13 -5z"/>
<path d="M2222 1610 c0 -14 2 -19 5 -12 2 6 2 18 0 25 -3 6 -5 1 -5 -13z"/>
<path d="M2016 1612 c-12 -19 -14 -62 -3 -69 6 -3 13 -1 15 5 2 7 9 9 15 5 9
-5 9 -3 1 8 -5 8 -9 24 -8 37 1 22 -10 30 -20 14z"/>
<path d="M2045 1530 c-8 -13 15 -24 27 -12 6 6 4 11 -6 15 -8 3 -18 2 -21 -3z"/>
<path d="M2260 1529 c0 -14 39 -59 52 -59 3 0 4 9 1 20 -3 12 -11 19 -17 17
-6 -2 -16 5 -23 17 -9 15 -12 17 -13 5z"/>
<path d="M2230 1485 c0 -18 4 -23 15 -19 17 7 17 7 9 28 -9 24 -24 19 -24 -9z"/>
<path d="M1920 1485 c0 -8 -9 -29 -20 -47 -25 -42 -15 -63 24 -48 24 9 27 14
25 55 -2 25 -8 46 -16 49 -7 3 -13 -1 -13 -9z"/>
<path d="M2154 1462 c-15 -10 -25 -42 -14 -42 6 0 10 8 11 18 0 10 3 12 6 5 7
-20 19 -15 20 7 2 21 -5 25 -23 12z"/>
<path d="M1990 1432 c0 -12 5 -24 10 -27 6 -4 9 -16 8 -28 -2 -12 2 -23 7 -25
6 -1 10 8 10 20 1 13 4 28 8 35 5 7 0 10 -15 6 -16 -3 -19 -2 -10 5 10 7 10
11 -3 22 -13 10 -15 9 -15 -8z"/>
<path d="M2278 1422 c-9 -9 -18 -43 -22 -74 -5 -51 -4 -58 11 -58 10 0 25 -5
33 -10 12 -7 12 -12 2 -22 -6 -6 -12 -24 -12 -39 0 -39 -11 -89 -20 -89 -5 0
-14 17 -21 38 -7 21 -14 31 -17 23 -7 -22 29 -83 45 -77 8 3 11 1 8 -4 -3 -5
-1 -19 5 -30 17 -33 131 -26 145 8 11 28 16 79 6 63 -5 -8 -11 -9 -15 -3 -3 5
1 15 9 22 8 7 15 16 15 21 0 15 -41 21 -56 8 -11 -9 -18 -9 -22 -2 -4 6 -16
12 -26 14 -11 2 -21 9 -23 16 -3 7 4 9 18 6 15 -4 20 -3 15 5 -4 7 -1 12 6 13
7 0 3 4 -9 9 -31 13 -30 34 2 28 15 -3 25 -1 25 6 0 16 -16 38 -26 37 -5 -1
-9 2 -9 7 0 4 -4 12 -8 19 -4 6 -3 14 2 17 5 4 6 18 2 33 -8 32 -42 40 -63 15z
m99 -277 c-18 -18 -27 -19 -27 -4 0 15 34 40 38 28 2 -5 -3 -16 -11 -24z m33
-5 c0 -5 -5 -10 -11 -10 -5 0 -7 5 -4 10 3 6 8 10 11 10 2 0 4 -4 4 -10z"/>
<path d="M1936 1345 c3 -20 -1 -26 -21 -31 -14 -3 -22 -10 -19 -15 3 -5 10 -6
16 -3 7 4 8 2 4 -4 -4 -6 -14 -8 -23 -5 -13 5 -12 1 5 -17 12 -13 22 -31 22
-39 0 -14 1 -14 10 -1 8 12 10 8 11 -15 1 -25 3 -22 10 15 10 48 3 140 -11
140 -5 0 -7 -11 -4 -25z"/>
<path d="M1863 1305 c-3 -9 -3 -18 -1 -21 3 -3 8 4 11 16 6 23 -1 27 -10 5z"/>
<path d="M1772 1070 c-12 -10 -22 -21 -22 -25 0 -14 104 4 119 21 15 15 14 16
-5 10 -12 -4 -32 -2 -45 3 -19 7 -30 4 -47 -9z"/>
<path d="M2146 1054 c-9 -23 -8 -24 17 -24 12 0 29 -4 36 -9 9 -6 22 -6 33 0
17 9 17 12 3 25 -9 9 -23 13 -34 9 -11 -3 -22 -1 -26 5 -9 15 -22 12 -29 -6z"/>
<path d="M2090 1030 c-13 -8 -12 -10 3 -10 9 0 17 5 17 10 0 12 -1 12 -20 0z"/>
<path d="M1521 2774 c0 -11 3 -14 6 -6 3 7 2 16 -1 19 -3 4 -6 -2 -5 -13z"/>
<path d="M1632 2760 c0 -14 2 -19 5 -12 2 6 2 18 0 25 -3 6 -5 1 -5 -13z"/>
<path d="M1455 2740 c-3 -5 -2 -10 4 -10 5 0 13 5 16 10 3 6 2 10 -4 10 -5 0
-13 -4 -16 -10z"/>
</g>
</svg>
